<svg xmlns:xlink="http://www.w3.org/1999/xlink" xmlns="http://www.w3.org/2000/svg" id="exportSvg" width="600" height="400"><defs/><g><g id="header-svg"><g id="text-svg"><text transform="translate(0, -2)" fill="rgb(51,51,51)" style="font-family: BentonSans; font-weight: 700; font-size: 19px;"><tspan x="0" dy="19">More ballots are being returned and accepted, fewer rejected</tspan></text></g><g id="text-svg"><text transform="translate(0, 31)" fill="rgb(51,51,51)" style="font-family: BentonSans; font-weight: 400; font-size: 15px;"><tspan x="0" dy="15">Comparing Minnesota's state primaries shows more engagement with early voting, </tspan></text><text transform="translate(0, 51)" fill="rgb(51,51,51)" style="font-family: BentonSans; font-weight: 400; font-size: 15px;"><tspan x="0" dy="15">as higher percentages of requested ballots are returned by voters, and greater </tspan></text><text transform="translate(0, 71)" fill="rgb(51,51,51)" style="font-family: BentonSans; font-weight: 400; font-size: 15px;"><tspan x="0" dy="15">portions of those are accepted.</tspan></text></g><g id="text-svg"><text transform="translate(0, 100)" fill="rgb(51,51,51)" style="font-family: BentonSans; font-weight: 400; font-size: 12px; letter-spacing: 0.2px;"><tspan x="0" dy="12">EARLY BALLOT STATUS IN MINNESOTA STATE PRIMARIES</tspan></text></g></g><g id="chart-svg"><g id="group-svg" clip-path="url(#rect-mask-group--F3NiyyVfoXQFSUjI_Szy)" transform="translate(0, 124)"><clipPath id="rect-mask-group--F3NiyyVfoXQFSUjI_Szy"><rect x="0" y="0" width="600" height="235"/></clipPath><g id="group-svg" transform="translate(38, 10)"><g id="x-svg ticks-svg" transform="translate(0, 212)"><g transform="translate(9.614643546560949, 0)"><text transform="translate(-13.5, -12) translate(13.5, 11)" fill="rgb(133, 133, 133)" style="text-anchor: middle; font-family: BentonSans; font-weight: 400; font-size: 12px;"><tspan x="0" dy="12">2016</tspan></text></g><g transform="translate(249.66419257989855, 0)"><text transform="translate(-13.5, -12) translate(13.5, 11)" fill="rgb(133, 133, 133)" style="text-anchor: middle; font-family: BentonSans; font-weight: 400; font-size: 12px;"><tspan x="0" dy="12">2018</tspan></text></g><g transform="translate(489.3853564572398, 0)"><text transform="translate(-15, -12) translate(15, 11)" fill="rgb(133, 133, 133)" style="text-anchor: middle; font-family: BentonSans; font-weight: 400; font-size: 12px;"><tspan x="0" dy="12">2020</tspan></text></g></g><g id="x-svg axis-svg" transform="translate(0, 207)"><line x1="0" x2="499" y1="0" y2="0" style="fill: none; stroke-width: 1; stroke-linejoin: miter; stroke-linecap: butt; stroke: rgb(51, 51, 51);"/></g><g id="y-grid-svg"><g transform="translate(0, 155.25)"><line x1="0" x2="499" y1="0" y2="0" style="fill: none; stroke-width: 1; stroke-linejoin: miter; stroke-linecap: butt; stroke: rgb(238, 238, 238);"/><text transform="translate(-4, 4) translate(-26, -12) translate(26, 0)" fill="rgb(133, 133, 133)" style="text-anchor: end; font-family: BentonSans; font-weight: 400; font-size: 12px;"><tspan x="0" dy="12">25%</tspan></text></g><g transform="translate(0, 103.5)"><line x1="0" x2="499" y1="0" y2="0" style="fill: none; stroke-width: 1; stroke-linejoin: miter; stroke-linecap: butt; stroke: rgb(238, 238, 238);"/><text transform="translate(-4, 4) translate(-27, -12) translate(27, 0)" fill="rgb(133, 133, 133)" style="text-anchor: end; font-family: BentonSans; font-weight: 400; font-size: 12px;"><tspan x="0" dy="12">50%</tspan></text></g><g transform="translate(0, 51.75)"><line x1="0" x2="499" y1="0" y2="0" style="fill: none; stroke-width: 1; stroke-linejoin: miter; stroke-linecap: butt; stroke: rgb(238, 238, 238);"/><text transform="translate(-4, 4) translate(-26, -12) translate(26, 0)" fill="rgb(133, 133, 133)" style="text-anchor: end; font-family: BentonSans; font-weight: 400; font-size: 12px;"><tspan x="0" dy="12">75%</tspan></text></g><g><line x1="0" x2="499" y1="0" y2="0" style="fill: none; stroke-width: 1; stroke-linejoin: miter; stroke-linecap: butt; stroke: rgb(238, 238, 238);"/><text transform="translate(-4, 4) translate(-33, -12) translate(33, 0)" fill="rgb(133, 133, 133)" style="text-anchor: end; font-family: BentonSans; font-weight: 400; font-size: 12px;"><tspan x="0" dy="12">100%</tspan></text></g></g><g id="lines-svg"><g id="rejected_pct-svg"><path d="M9.614643546560949,196.65L249.66419257989855,200.79L489.3853564572398,202.86" stroke="rgb(242,201,172)" id="rejected_pct" style="mix-blend-mode: normal; fill: none; stroke-width: 3; stroke-linejoin: round; stroke-linecap: round; stroke: rgb(242, 201, 172);"/></g><g id="returned_pct-svg"><path d="M9.614643546560949,122.13000000000001L249.66419257989855,70.38L489.3853564572398,74.52000000000001" stroke="rgb(170,170,170)" id="returned_pct" style="mix-blend-mode: normal; fill: none; stroke-width: 3; stroke-linejoin: round; stroke-linecap: round; stroke: rgb(170, 170, 170);"/></g><g id="accepted_pct-svg"><path d="M9.614643546560949,10.350000000000023L249.66419257989855,8.280000000000001L489.3853564572398,4.140000000000015" stroke="rgb(125,115,156)" id="accepted_pct" style="mix-blend-mode: normal; fill: none; stroke-width: 3; stroke-linejoin: round; stroke-linecap: round; stroke: rgb(125, 115, 156);"/></g></g><g id="line-symbols-svg"><path d="M -1,0 a 1,1 0 1,0 2,0 a 1,1 0 1,0 -2,0 Z" id="rejected_pct" transform="translate(489.3853564572398, 202.86) scale(3.5)" style="mix-blend-mode: normal; fill: rgb(242, 201, 172);"/><path d="M -1,0 a 1,1 0 1,0 2,0 a 1,1 0 1,0 -2,0 Z" id="returned_pct" transform="translate(489.3853564572398, 74.52000000000001) scale(3.5)" style="mix-blend-mode: normal; fill: rgb(170, 170, 170);"/><path d="M -1,0 a 1,1 0 1,0 2,0 a 1,1 0 1,0 -2,0 Z" id="accepted_pct" transform="translate(489.3853564572398, 4.140000000000015) scale(3.5)" style="mix-blend-mode: normal; fill: rgb(125, 115, 156);"/></g></g></g><g id="rejected_pct-svg"><text transform="translate(537, 331.859375)" fill="rgb(242,201,172)" style="font-family: BentonSans; font-weight: 400; font-size: 12px;"><tspan x="0" dy="12">Rejected</tspan></text></g><g id="returned_pct-svg"><text transform="translate(537, 203.515625)" fill="rgb(170,170,170)" style="font-family: BentonSans; font-weight: 400; font-size: 12px;"><tspan x="0" dy="12">Returned</tspan></text></g><g id="accepted_pct-svg"><text transform="translate(537, 133.140625)" fill="rgb(125,115,156)" style="font-family: BentonSans; font-weight: 400; font-size: 12px;"><tspan x="0" dy="12">Accepted</tspan></text></g></g><g id="after-body-svg"/><g id="above-footer-svg"/><g id="footer-svg"><g id="footer-inner-svg"><g id="footer-main-svg"><g id="text-svg"><text transform="translate(0, 382)" fill="rgb(136,136,136)" style="font-family: BentonSans; font-weight: 400; font-size: 11px;"><tspan x="0" dy="11">Chart:</tspan></text><text transform="translate(34, 382)" fill="rgb(136,136,136)" style="font-family: BentonSans; font-weight: 400; font-size: 11px;"><tspan x="0" dy="11">Jeff Hargarten, Star Tribune</tspan></text></g><g id="text-svg"><text transform="translate(174, 382)" fill="rgb(136,136,136)" style="font-family: BentonSans; font-weight: 400; font-size: 11px;"><tspan x="0" dy="11">​ •</tspan></text></g><g id="text-svg"><text transform="translate(185, 382)" fill="rgb(136,136,136)" style="font-family: BentonSans; font-weight: 400; font-size: 11px;"><tspan x="0" dy="11">Source:</tspan></text><text transform="translate(226, 382)" fill="rgb(136,136,136)" style="font-family: BentonSans; font-weight: 400; font-size: 11px;"><tspan x="0" dy="11">Minnesota Secretary of State</tspan></text></g></g></g></g><g id="below-footer-svg"/></g></svg>