<svg xmlns:xlink="http://www.w3.org/1999/xlink" xmlns="http://www.w3.org/2000/svg" id="exportSvg" width="608" height="402"><defs/><g><g id="header-svg"><g id="text-svg"><text transform="translate(0, -2)" fill="rgb(51,51,51)" style="font-family: BentonSans; font-weight: 700; font-size: 19px;"><tspan x="0" dy="19">Most absentee ballots arrived before deadline</tspan></text></g><g id="text-svg"><text transform="translate(0, 31)" fill="rgb(51,51,51)" style="font-family: BentonSans; font-weight: 400; font-size: 15px;"><tspan x="0" dy="15">Accepted absentee and mail ballots flooded in at an increasing pace before </tspan></text><text transform="translate(0, 51)" fill="rgb(51,51,51)" style="font-family: BentonSans; font-weight: 400; font-size: 15px;"><tspan x="0" dy="15">Minnesota's state primary and through the extended arrival window.</tspan></text></g><g id="text-svg"><text transform="translate(0, 80)" fill="rgb(51,51,51)" style="font-family: BentonSans; font-weight: 400; font-size: 12px; letter-spacing: 0.2px;"><tspan x="0" dy="12">DAILY ABSENTEE BALLOT TRANSACTIONS</tspan></text></g></g><g id="chart-svg"><g id="group-svg" clip-path="url(#rect-mask-group-KiafmmvN6o6ojc_Z3mAAW)" transform="translate(0, 104)"><clipPath id="rect-mask-group-KiafmmvN6o6ojc_Z3mAAW"><rect x="0" y="0" width="608" height="257"/></clipPath><g id="group-svg" transform="translate(47, 34)"><g id="x-svg ticks-svg" transform="translate(0, 210)"><g transform="translate(44.97804755184669, 0)"><text transform="translate(-8, -12) translate(8, 11)" fill="rgb(133, 133, 133)" style="text-anchor: middle; font-family: BentonSans; font-weight: 400; font-size: 12px;"><tspan x="0" dy="12">Jul</tspan></text></g><g transform="translate(106.79516707995278, 0)"><text transform="translate(-6, -12) translate(6, 11)" fill="rgb(133, 133, 133)" style="text-anchor: middle; font-family: BentonSans; font-weight: 400; font-size: 12px;"><tspan x="0" dy="12">12</tspan></text></g><g transform="translate(168.61228660805887, 0)"><text transform="translate(-6, -12) translate(6, 11)" fill="rgb(133, 133, 133)" style="text-anchor: middle; font-family: BentonSans; font-weight: 400; font-size: 12px;"><tspan x="0" dy="12">19</tspan></text></g><g transform="translate(230.4294061361649, 0)"><text transform="translate(-7, -12) translate(7, 11)" fill="rgb(133, 133, 133)" style="text-anchor: middle; font-family: BentonSans; font-weight: 400; font-size: 12px;"><tspan x="0" dy="12">26</tspan></text></g><g transform="translate(292.246525664271, 0)"><text transform="translate(-11, -12) translate(11, 11)" fill="rgb(133, 133, 133)" style="text-anchor: middle; font-family: BentonSans; font-weight: 400; font-size: 12px;"><tspan x="0" dy="12">Aug</tspan></text></g><g transform="translate(354.0636451923771, 0)"><text transform="translate(-7.5, -12) translate(7.5, 11)" fill="rgb(133, 133, 133)" style="text-anchor: middle; font-family: BentonSans; font-weight: 400; font-size: 12px;"><tspan x="0" dy="12">09</tspan></text></g><g transform="translate(415.88076472048317, 0)"><text transform="translate(-6, -12) translate(6, 11)" fill="rgb(133, 133, 133)" style="text-anchor: middle; font-family: BentonSans; font-weight: 400; font-size: 12px;"><tspan x="0" dy="12">16</tspan></text></g><g transform="translate(477.6978842485892, 0)"><text transform="translate(-7, -12) translate(7, 11)" fill="rgb(133, 133, 133)" style="text-anchor: middle; font-family: BentonSans; font-weight: 400; font-size: 12px;"><tspan x="0" dy="12">23</tspan></text></g><g transform="translate(539.5150037766954, 0)"><text transform="translate(-7.5, -12) translate(7.5, 11)" fill="rgb(133, 133, 133)" style="text-anchor: middle; font-family: BentonSans; font-weight: 400; font-size: 12px;"><tspan x="0" dy="12">30</tspan></text></g></g><g id="x-svg axis-svg" transform="translate(0, 205)"><line x1="0" x2="558" y1="0" y2="0" style="fill: none; stroke-width: 1; stroke-linejoin: miter; stroke-linecap: butt; stroke: rgb(51, 51, 51);"/></g><g id="free-range-svg"><rect width="22.0714" height="205" transform="translate(371.7256793432645, 0)" fill="rgb(51,51,51)" style="fill: rgb(51, 51, 51); opacity: 0.11;"/></g><g id="y-grid-svg"><g id="tick-svg tick-major-svg" transform="translate(0, 205)"><text transform="translate(-4, 4) translate(-8, -12) translate(8, 0)" fill="rgb(133, 133, 133)" style="text-anchor: end; font-family: BentonSans; font-weight: 400; font-size: 12px;"><tspan x="0" dy="12">0</tspan></text></g><g transform="translate(0, 154.53473487272908)"><line x1="0" x2="558" y1="0" y2="0" style="fill: none; stroke-width: 1; stroke-linejoin: miter; stroke-linecap: butt; stroke: rgb(238, 238, 238);"/><text transform="translate(-4, 4) translate(-40, -12) translate(40, 0)" fill="rgb(133, 133, 133)" style="text-anchor: end; font-family: BentonSans; font-weight: 400; font-size: 12px;"><tspan x="0" dy="12">10,000</tspan></text></g><g transform="translate(0, 104.06946974545812)"><line x1="0" x2="558" y1="0" y2="0" style="fill: none; stroke-width: 1; stroke-linejoin: miter; stroke-linecap: butt; stroke: rgb(238, 238, 238);"/><text transform="translate(-4, 4) translate(-42, -12) translate(42, 0)" fill="rgb(133, 133, 133)" style="text-anchor: end; font-family: BentonSans; font-weight: 400; font-size: 12px;"><tspan x="0" dy="12">20,000</tspan></text></g><g transform="translate(0, 53.6042046181872)"><line x1="0" x2="558" y1="0" y2="0" style="fill: none; stroke-width: 1; stroke-linejoin: miter; stroke-linecap: butt; stroke: rgb(238, 238, 238);"/><text transform="translate(-4, 4) translate(-42, -12) translate(42, 0)" fill="rgb(133, 133, 133)" style="text-anchor: end; font-family: BentonSans; font-weight: 400; font-size: 12px;"><tspan x="0" dy="12">30,000</tspan></text></g><g transform="translate(0, 3.1389394909162434)"><line x1="0" x2="558" y1="0" y2="0" style="fill: none; stroke-width: 1; stroke-linejoin: miter; stroke-linecap: butt; stroke: rgb(238, 238, 238);"/><text transform="translate(-4, 4) translate(-42, -12) translate(42, 0)" fill="rgb(133, 133, 133)" style="text-anchor: end; font-family: BentonSans; font-weight: 400; font-size: 12px;"><tspan x="0" dy="12">40,000</tspan></text></g></g><g id="lines-svg"><g id="accepted-svg"><path d="M9.653979250071789,189.01260400768058L18.484996325515514,180.32248535276452L27.31601340095924,205L36.14703047640297,205L44.97804755184669,201.39173354340014L53.80906462729042,201.39173354340014L62.64008170273414,167.88279749889222L71.47109877817788,155.37245827384174L80.3021158536216,165.00627738663778L89.13313292906533,164.73376495495052L97.96415000450905,205L106.79516707995278,201.45229186155285L115.6261841553965,138.44136182364235L124.45720123084023,155.0091083649254L133.28821830628397,151.39074885530007L142.11923538172766,151.05263157894737L150.95025245717142,153.84840726699818L159.7812695326151,199.70114716163656L168.61228660805887,205L177.44330368350256,115.40396829304318L186.27432075894632,147.0507360543548L195.10533783439,137.86101127467873L203.93635490983377,131.71938850868986L212.76737198527746,152.13258825267096L221.59838906072122,199.0198660824184L230.4294061361649,205L239.26042321160867,117.10969425434493L248.09144028705236,129.97833686179902L256.9224573624961,120.89458913889025L265.7534744379398,119.94079562798484L274.58449151338357,117.26613657623948L283.4155085888273,194.5688296981931L292.246525664271,204.99495347348727L301.0775427397147,58.262148589434304L309.90855981515847,111.95214415833784L318.7395768906022,51.85305991827087L327.5705939660459,60.13945645216879L336.4016110414896,75.7887351681355L345.23262811693337,115.97927231549407L354.0636451923771,204.0865787011964L362.8946622678208,22.517601299788282L371.7256793432645,0L380.55669641870827,53.25094776229628L389.387713494152,153.02582344542367" stroke="rgb(125,115,156)" id="accepted" style="mix-blend-mode: normal; fill: none; stroke-width: 3; stroke-linejoin: round; stroke-linecap: round; stroke: rgb(125, 115, 156);"/></g></g><g id="line-symbols-svg"><path d="M -1,0 a 1,1 0 1,0 2,0 a 1,1 0 1,0 -2,0 Z" id="accepted" transform="translate(9.653979250071789, 189.01260400768058) scale(3.5)" style="mix-blend-mode: normal; fill: rgb(125, 115, 156);"/><path d="M -1,0 a 1,1 0 1,0 2,0 a 1,1 0 1,0 -2,0 Z" id="accepted" transform="translate(389.387713494152, 153.02582344542367) scale(3.5)" style="mix-blend-mode: normal; fill: rgb(125, 115, 156);"/></g><g id="free-texts-svg"><text transform="translate(453.90886827485207, 61.93527468182265) translate(-37.25, -11) translate(37.25, 0)" fill="rgb(51, 51, 51)" style="text-anchor: middle; font-family: BentonSans; font-weight: 400; font-size: 11px;"><tspan x="0" dy="11">←Primary Day</tspan><tspan x="0" dy="13.2">arrival window</tspan></text></g></g></g><g id="accepted-svg" clip-path="url(#rect-mask-accepted-Bjy5DuC9CqwPIOApcLyR9)" transform="translate(0, 104)"><clipPath id="rect-mask-accepted-Bjy5DuC9CqwPIOApcLyR9"><rect x="0" y="0" width="16" height="20"/></clipPath><path d="M1.5,10 L14.5,10" stroke="rgb(125,115,156)" id="accepted" style="mix-blend-mode: normal; fill: none; stroke-width: 3; stroke-linejoin: round; stroke-linecap: round; stroke: rgb(125, 115, 156);"/></g><g id="accepted-svg"><text transform="translate(20, 107.609375)" fill="rgb(51,51,51)" style="font-family: BentonSans; font-weight: 400; font-size: 12px;"><tspan x="0" dy="12">Accepted absentee ballots</tspan></text></g></g><g id="after-body-svg"/><g id="above-footer-svg"/><g id="footer-svg"><g id="footer-inner-svg"><g id="footer-main-svg"><g id="text-svg"><text transform="translate(0, 384)" fill="rgb(136,136,136)" style="font-family: BentonSans; font-weight: 400; font-size: 11px;"><tspan x="0" dy="11">Chart:</tspan></text><text transform="translate(34, 384)" fill="rgb(136,136,136)" style="font-family: BentonSans; font-weight: 400; font-size: 11px;"><tspan x="0" dy="11">Jeff Hargarten, Star Tribune</tspan></text></g><g id="text-svg"><text transform="translate(174, 384)" fill="rgb(136,136,136)" style="font-family: BentonSans; font-weight: 400; font-size: 11px;"><tspan x="0" dy="11">​ •</tspan></text></g><g id="text-svg"><text transform="translate(185, 384)" fill="rgb(136,136,136)" style="font-family: BentonSans; font-weight: 400; font-size: 11px;"><tspan x="0" dy="11">Source:</tspan></text><text transform="translate(226, 384)" fill="rgb(136,136,136)" style="font-family: BentonSans; font-weight: 400; font-size: 11px;"><tspan x="0" dy="11">Minnesota Secretary of State</tspan></text></g></g></g></g><g id="below-footer-svg"/></g></svg>